HIERARCHY
ROOT hip
{
  OFFSET 0 0 0
  CHANNELS 6 Xposition Yposition Zposition Zrotation Yrotation Xrotation
  JOINT abdomen
  {
    OFFSET 0 20.6881 -0.73152
    CHANNELS 3 Zrotation Xrotation Yrotation
    JOINT chest
    {
      OFFSET 0 11.7043 -0.48768
      CHANNELS 3 Zrotation Xrotation Yrotation
      JOINT neck
      {
        OFFSET 0 22.1894 -2.19456
        CHANNELS 3 Zrotation Xrotation Yrotation
        JOINT head
        {
          OFFSET -0.24384 7.07133 1.2192
          CHANNELS 3 Zrotation Xrotation Yrotation
          JOINT leftEye
          {
            OFFSET 4.14528 8.04674 8.04672
            CHANNELS 3 Zrotation Xrotation Yrotation
            End Site
            {
              OFFSET 1 0 0
            }
          }
          JOINT rightEye
          {
            OFFSET -3.6576 8.04674 8.04672
            CHANNELS 3 Zrotation Xrotation Yrotation
            End Site
            {
              OFFSET 1 0 0
            }
          }
        }
      }
      JOINT rCollar
      {
        OFFSET -2.68224 19.2634 -4.8768
        CHANNELS 3 Zrotation Xrotation Yrotation
        JOINT rShldr
        {
          OFFSET -8.77824 -1.95073 1.46304
          CHANNELS 3 Zrotation Xrotation Yrotation
          JOINT rForeArm
          {
            OFFSET -28.1742 -1.7115 0.48768
            CHANNELS 3 Zrotation Xrotation Yrotation
            JOINT rHand
            {
              OFFSET -22.5879 0.773209 7.07136
              CHANNELS 3 Zrotation Xrotation Yrotation
              JOINT rThumb1
              {
                OFFSET -1.2192 -0.487915 3.41376
                CHANNELS 3 Zrotation Xrotation Yrotation
                JOINT rThumb2
                {
                  OFFSET -3.37035 -0.52449 3.41376
                  CHANNELS 3 Zrotation Xrotation Yrotation
                  End Site
                  {
                    OFFSET -1.78271 -1.18214 1.43049
                  }
                }
              }
              JOINT rIndex1
              {
                OFFSET -7.75947 0.938293 5.60832
                CHANNELS 3 Zrotation Xrotation Yrotation
                JOINT rIndex2
                {
                  OFFSET -2.54057 -0.884171 1.56538
                  CHANNELS 3 Zrotation Xrotation Yrotation
                  End Site
                  {
                    OFFSET -1.62519 -0.234802 1.16502
                  }
                }
              }
              JOINT rMid1
              {
                OFFSET -8.24714 1.18213 3.41376
                CHANNELS 3 Zrotation Xrotation Yrotation
                JOINT rMid2
                {
                  OFFSET -3.10165 -0.590103 1.0647
                  CHANNELS 3 Zrotation Xrotation Yrotation
                  End Site
                  {
                    OFFSET -2.48547 -0.328903 0.83742
                  }
                }
              }
              JOINT rRing1
              {
                OFFSET -8.82822 0.546677 1.51678
                CHANNELS 3 Zrotation Xrotation Yrotation
                JOINT rRing2
                {
                  OFFSET -2.60934 -0.819778 -0.0198488
                  CHANNELS 3 Zrotation Xrotation Yrotation
                  End Site
                  {
                    OFFSET -2.33842 -0.294052 0.168128
                  }
                }
              }
              JOINT rPinky1
              {
                OFFSET -8.27202 -0.0477905 -0.4584
                CHANNELS 3 Zrotation Xrotation Yrotation
                JOINT rPinky2
                {
                  OFFSET -1.82734 -0.647385 -0.700984
                  CHANNELS 3 Zrotation Xrotation Yrotation
                  End Site
                  {
                    OFFSET -1.69225 -0.51767 -0.607171
                  }
                }
              }
            }
          }
        }
      }
      JOINT lCollar
      {
        OFFSET 2.68224 19.2634 -4.8768
        CHANNELS 3 Zrotation Xrotation Yrotation
        JOINT lShldr
        {
          OFFSET 8.77824 -1.95073 1.46304
          CHANNELS 3 Zrotation Xrotation Yrotation
          JOINT lForeArm
          {
            OFFSET 28.1742 -1.7115 0.48768
            CHANNELS 3 Zrotation Xrotation Yrotation
            JOINT lHand
            {
              OFFSET 22.5879 0.773209 7.07136
              CHANNELS 3 Zrotation Xrotation Yrotation
              JOINT lThumb1
              {
                OFFSET 1.2192 -0.487915 3.41376
                CHANNELS 3 Zrotation Xrotation Yrotation
                JOINT lThumb2
                {
                  OFFSET 3.37035 -0.52449 3.41376
                  CHANNELS 3 Zrotation Xrotation Yrotation
                  End Site
                  {
                    OFFSET 1.78271 -1.18214 1.43049
                  }
                }
              }
              JOINT lIndex1
              {
                OFFSET 7.75947 0.938293 5.60832
                CHANNELS 3 Zrotation Xrotation Yrotation
                JOINT lIndex2
                {
                  OFFSET 2.54057 -0.884171 1.56538
                  CHANNELS 3 Zrotation Xrotation Yrotation
                  End Site
                  {
                    OFFSET 1.62519 -0.234802 1.16502
                  }
                }
              }
              JOINT lMid1
              {
                OFFSET 8.24714 1.18213 3.41376
                CHANNELS 3 Zrotation Xrotation Yrotation
                JOINT lMid2
                {
                  OFFSET 3.10165 -0.590103 1.0647
                  CHANNELS 3 Zrotation Xrotation Yrotation
                  End Site
                  {
                    OFFSET 2.48547 -0.328903 0.83742
                  }
                }
              }
              JOINT lRing1
              {
                OFFSET 8.82822 0.546677 1.51678
                CHANNELS 3 Zrotation Xrotation Yrotation
                JOINT lRing2
                {
                  OFFSET 2.60934 -0.819778 -0.0198488
                  CHANNELS 3 Zrotation Xrotation Yrotation
                  End Site
                  {
                    OFFSET 2.33842 -0.294052 0.168128
                  }
                }
              }
              JOINT lPinky1
              {
                OFFSET 8.27202 -0.0477905 -0.4584
                CHANNELS 3 Zrotation Xrotation Yrotation
                JOINT lPinky2
                {
                  OFFSET 1.82734 -0.647385 -0.700984
                  CHANNELS 3 Zrotation Xrotation Yrotation
                  End Site
                  {
                    OFFSET 1.69225 -0.51767 -0.607171
                  }
                }
              }
            }
          }
        }
      }
    }
  }
  JOINT rButtock
  {
    OFFSET -8.77824 4.35084 1.2192
    CHANNELS 3 Zrotation Xrotation Yrotation
    JOINT rThigh
    {
      OFFSET 0 -1.70687 -2.19456
      CHANNELS 3 Zrotation Xrotation Yrotation
      JOINT rShin
      {
        OFFSET 0 -36.8199 0.73152
        CHANNELS 3 Zrotation Xrotation Yrotation
        JOINT rFoot
        {
          OFFSET 0.73152 -45.1104 -5.12064
          CHANNELS 3 Zrotation Xrotation Yrotation
          End Site
          {
            OFFSET -1.1221 -3.69964 12.103
          }
        }
      }
    }
  }
  JOINT lButtock
  {
    OFFSET 8.77824 4.35084 1.2192
    CHANNELS 3 Zrotation Xrotation Yrotation
    JOINT lThigh
    {
      OFFSET 0 -1.70687 -2.19456
      CHANNELS 3 Zrotation Xrotation Yrotation
      JOINT lShin
      {
        OFFSET 0 -36.8199 0.73152
        CHANNELS 3 Zrotation Xrotation Yrotation
        JOINT lFoot
        {
          OFFSET -0.73152 -45.1104 -5.12064
          CHANNELS 3 Zrotation Xrotation Yrotation
          End Site
          {
            OFFSET 1.1221 -3.69964 12.103
          }
        }
      }
    }
  }
}
MOTION
Frames:	6
Frame Time:	0.00833333
-54.5768 84.8839 -60.9522 0.0 0.0 0.0 -0.194078 -0.000752045 -0.00553946 -0.0535367 -0.00112971 -0.00927454 -2.9333e-15 -7.95139e-16 9.31803e-17 -8.82418e-15 3.18055e-15 2.79541e-16 -0.0 0.0 0.0 -0.0 0.0 0.0 -1.44255e-15 2.71776e-18 1.98785e-16 -2.82627e-14 -1.05604e-16 1.78906e-15 -5.26382e-13 1.61413e-13 9.54166e-15 -6.06477e-12 -1.44541e-13 1.84472e-13 -1.42977e-11 3.64117e-14 4.45278e-13 -2.46966e-11 6.04305e-14 7.60948e-13 -1.42914e-11 3.73715e-14 4.42097e-13 7.73091 5.47488 0.417314 -1.42976e-11 3.63776e-14 4.45278e-13 2.90554 0.965183 0.102902 -1.42922e-11 3.68746e-14 4.41302e-13 10.2786 0.731801 0.0259123 -1.43012e-11 3.65764e-14 4.51639e-13 2.22167 -0.733487 -0.20892 -1.43993e-15 2.71776e-18 -9.93923e-17 -3.25868e-14 -2.98177e-16 -1.98785e-16 -5.32644e-13 -1.58233e-13 3.49861e-14 -6.06044e-12 1.56021e-13 1.65389e-13 -1.43013e-11 -3.30516e-15 4.45278e-13 -2.46974e-11 -3.18055e-15 7.68104e-13 -1.43073e-11 0.0 4.51639e-13 -7.73091 5.47488 -0.417314 -1.43011e-11 -2.98177e-15 4.42097e-13 -2.90554 0.965183 -0.102902 -1.43142e-11 -2.88238e-15 4.42892e-13 -10.2786 0.731801 -0.0259123 -1.42974e-11 -2.38542e-15 4.42097e-13 -2.22167 -0.733487 0.20892 -2.03217e-16 0.0 -3.88251e-19 0.355874 -2.82713 -0.0340699 -0.00665521 -0.431857 -0.0584486 -0.502565 3.25829 0.123802 2.03217e-16 0.0 3.88251e-19 -0.651341 -3.58304 0.0525565 0.00445987 0.937459 0.0381191 0.504949 2.64491 -0.111589
-49.4013 84.0518 -66.0724 -28.8054 87.8356 -30.7265 -0.411209 3.31919 0.344528 0.662578 -1.82012 0.123517 -3.64371 -0.0191077 -2.53484 4.41533 3.62238 -4.14617 -0.0 0.0 0.0 -0.0 0.0 0.0 -1.98713e-14 3.16899e-12 -1.71029e-14 22.494 1.36477 -1.48125 -4.8276 -2.32979 7.38662 0.00760352 1.93952 0.272022 1.87722e-10 2.43745e-10 1.68498e-10 3.25362e-10 4.23326e-10 2.89748e-10 1.8773e-10 2.43747e-10 1.68492e-10 7.73091 5.47488 0.417314 1.87722e-10 2.43744e-10 1.68499e-10 2.90554 0.965183 0.102902 1.87727e-10 2.43744e-10 1.68496e-10 10.2786 0.731801 0.0259123 1.87718e-10 2.43745e-10 1.68508e-10 2.22167 -0.733487 -0.20892 -1.99157e-14 3.16899e-12 -1.73568e-14 -20.1143 3.89806 0.836381 5.13434 -2.54946 -7.77033 -0.00201468 0.995682 -0.139858 1.20702e-10 -1.64581e-10 -1.95521e-10 2.07757e-10 -2.85134e-10 -3.38845e-10 1.20697e-10 -1.64582e-10 -1.95515e-10 -7.73091 5.47488 -0.417314 1.20702e-10 -1.64581e-10 -1.95523e-10 -2.90554 0.965183 -0.102902 1.20691e-10 -1.64581e-10 -1.95524e-10 -10.2786 0.731801 -0.0259123 1.20707e-10 -1.6458e-10 -1.95527e-10 -2.22167 -0.733487 0.20892 -2.03217e-16 0.0 -3.88251e-19 -2.33689 -3.42054 1.06387 -0.000135397 6.18781 0.049854 -0.565835 0.10174 -1.0592 2.03217e-16 0.0 3.88251e-19 4.436 -3.96339 -3.90539 0.00393303 7.25852 -0.0508221 0.484444 3.14234 0.395882
-49.4096 84.3652 -65.1657 -34.462 87.7435 -36.3672 -0.682672 6.83165 0.721458 1.42866 -3.74588 0.264986 -7.49309 -0.037581 -5.21289 9.65333 7.38821 -8.58203 -0.0 0.0 0.0 -0.0 0.0 0.0 -4.02044e-14 6.66029e-12 -3.61322e-14 46.3569 2.76537 -3.05268 -9.27891 -4.65994 15.2272 -0.00449017 4.00596 0.56291 4.13549e-10 5.11001e-10 3.90967e-10 7.16888e-10 8.87484e-10 6.72675e-10 4.13559e-10 5.11003e-10 3.90957e-10 7.73091 5.47488 0.417314 4.13549e-10 5.10998e-10 3.90968e-10 2.90554 0.965183 0.102902 4.13554e-10 5.10999e-10 3.90967e-10 10.2786 0.731801 0.0259123 4.13545e-10 5.11e-10 3.90981e-10 2.22167 -0.733487 -0.20892 -4.02998e-14 6.66029e-12 -3.63372e-14 -41.4963 8.01825 1.74 9.81512 -5.08646 -16.0302 0.00114319 2.04744 -0.287735 2.56954e-10 -3.49665e-10 -4.45366e-10 4.42106e-10 -6.05728e-10 -7.71683e-10 2.56952e-10 -3.4967e-10 -4.45362e-10 -7.73091 5.47488 -0.417314 2.56955e-10 -3.49665e-10 -4.45368e-10 -2.90554 0.965183 -0.102902 2.56946e-10 -3.49665e-10 -4.4537e-10 -10.2786 0.731801 -0.0259123 2.56961e-10 -3.49663e-10 -4.45375e-10 -2.22167 -0.733487 0.20892 -2.03217e-16 0.0 -3.88251e-19 -5.18429 -4.03339 2.22788 -0.0211338 13.1783 0.167955 -0.772223 -3.22666 -2.293 2.03217e-16 0.0 3.88251e-19 9.77387 -4.30469 -8.08212 0.0246357 13.8994 -0.148687 0.451941 3.59497 0.853172
-49.5379 84.3032 -64.4422 -32.4865 87.8311 -34.2766 -0.96875 9.95758 1.05888 2.1202 -5.45798 0.390685 -10.9362 -0.0568745 -7.60452 14.8282 10.6378 -12.6342 -0.0 0.0 0.0 -0.0 0.0 0.0 -5.67287e-14 9.50697e-12 -5.17061e-14 67.6938 4.08336 -4.45381 -12.7208 -6.52572 22.2936 -0.0326803 5.81803 0.819822 5.91761e-10 7.31164e-10 5.04603e-10 1.02548e-09 1.26986e-09 8.67721e-10 5.91772e-10 7.31165e-10 5.04591e-10 7.73091 5.47488 0.417314 5.91761e-10 7.31159e-10 5.04606e-10 2.90554 0.965183 0.102902 5.91766e-10 7.3116e-10 5.04605e-10 10.2786 0.731801 0.0259123 5.91757e-10 7.31162e-10 5.0462e-10 2.22167 -0.733487 -0.20892 -5.68673e-14 9.50698e-12 -5.18715e-14 -60.6903 11.6841 2.55634 13.3789 -7.08691 -23.4778 0.00855531 2.98697 -0.42008 3.90707e-10 -4.93738e-10 -5.87452e-10 6.72667e-10 -8.55395e-10 -1.01807e-09 3.90707e-10 -4.93747e-10 -5.8745e-10 -7.73091 5.47488 -0.417314 3.90709e-10 -4.93737e-10 -5.87453e-10 -2.90554 0.965183 -0.102902 3.90702e-10 -4.93738e-10 -5.87457e-10 -10.2786 0.731801 -0.0259123 3.90716e-10 -4.93736e-10 -5.87464e-10 -2.22167 -0.733487 0.20892 -2.03217e-16 0.0 -3.88251e-19 -7.65404 -4.60167 3.2645 -0.065524 19.4269 0.281618 -1.0846 -6.20018 -3.44496 2.03217e-16 0.0 3.88251e-19 14.4551 -4.65115 -11.8325 0.064715 19.9005 -0.241919 0.416938 4.13616 1.41248
-49.5928 84.4165 -63.5784 -33.0039 87.7226 -34.7175 -1.20192 12.1187 1.28365 2.60719 -6.63607 0.475412 -13.3606 -0.0785576 -9.28011 18.7269 12.8148 -15.5409 -0.0 0.0 0.0 -0.0 0.0 0.0 -6.37308e-14 1.07421e-11 -5.86415e-14 82.5756 5.20464 -5.42095 -14.8586 -7.66861 27.2982 -0.0603846 6.99471 0.988004 6.50936e-10 8.33592e-10 3.46159e-10 1.12673e-09 1.44777e-09 5.93065e-10 6.50947e-10 8.33593e-10 3.46146e-10 7.73091 5.47488 0.417314 6.50936e-10 8.33586e-10 3.46162e-10 2.90554 0.965183 0.102902 6.50941e-10 8.33587e-10 3.46163e-10 10.2786 0.731801 0.0259123 6.50931e-10 8.3359e-10 3.46178e-10 2.22167 -0.733487 -0.20892 -6.38932e-14 1.07421e-11 -5.87906e-14 -74.1623 14.2241 3.10861 15.5536 -8.27907 -28.7359 0.0163316 3.64602 -0.513114 5.18214e-10 -5.35284e-10 -4.6014e-10 8.93759e-10 -9.27742e-10 -7.98341e-10 5.18215e-10 -5.35296e-10 -4.60137e-10 -7.73091 5.47488 -0.417314 5.18217e-10 -5.35284e-10 -4.6014e-10 -2.90554 0.965183 -0.102902 5.18211e-10 -5.35284e-10 -4.60144e-10 -10.2786 0.731801 -0.0259123 5.18223e-10 -5.35282e-10 -4.60153e-10 -2.22167 -0.733487 0.20892 -2.03217e-16 0.0 -3.88251e-19 -9.22576 -5.06311 3.97919 -0.112358 23.8214 0.369311 -1.39687 -8.29724 -4.36915 2.03217e-16 0.0 3.88251e-19 17.5779 -5.06183 -14.5114 0.109021 24.3025 -0.311243 0.377216 4.89852 2.22699
-49.7113 84.5932 -62.925 -29.9417 87.9362 -31.4522 -1.34222 12.9229 1.3263 2.82229 -7.06679 0.498218 -14.3689 -0.114247 -9.95161 20.3386 13.6649 -16.7134 -0.0 0.0 0.0 -0.0 0.0 0.0 -5.65337e-14 9.42115e-12 -5.1936e-14 88.3529 6.08146 -5.76562 -15.669 -8.09733 29.3387 -0.0693347 7.27002 1.02765 5.06495e-10 7.47513e-10 -3.42289e-10 8.72926e-10 1.29832e-09 -5.96817e-10 5.06504e-10 7.47514e-10 -3.423e-10 7.73091 5.47488 0.417314 5.06495e-10 7.47509e-10 -3.42285e-10 2.90554 0.965183 0.102902 5.06502e-10 7.47509e-10 -3.42284e-10 10.2786 0.731801 0.0259123 5.06492e-10 7.47512e-10 -3.42271e-10 2.22167 -0.733487 -0.20892 -5.66911e-14 9.42115e-12 -5.21072e-14 -79.5207 15.1466 3.26362 16.3524 -8.7017 -30.8357 0.0200815 3.91593 -0.551271 6.70578e-10 -4.05459e-10 1.84233e-10 1.1604e-09 -7.03853e-10 3.15857e-10 6.7058e-10 -4.0547e-10 1.84239e-10 -7.73091 5.47488 -0.417314 6.70581e-10 -4.05457e-10 1.84235e-10 -2.90554 0.965183 -0.102902 6.70576e-10 -4.05458e-10 1.84231e-10 -10.2786 0.731801 -0.0259123 6.70587e-10 -4.05456e-10 1.84221e-10 -2.22167 -0.733487 0.20892 -2.03217e-16 0.0 -3.88251e-19 -9.55183 -5.38952 4.23785 -0.134542 25.6289 0.408833 -1.59587 -9.16525 -4.99225 2.03217e-16 0.0 3.88251e-19 18.5655 -5.59268 -15.7264 0.137143 26.4477 -0.335466 0.29685 6.16899 3.43238
